<?xml version="1.0" encoding="UTF-8"?>
<svg viewBox="0 0 1600 1200" xmlns="http://www.w3.org/2000/svg">
 <defs>
  <linearGradient id="m" x1=".99539" x2=".12161" y1=".23943" y2=".8608">
   <stop stop-color="#fff" offset="0"/>
   <stop stop-color="#fff200" offset=".4835"/>
   <stop stop-color="#ed1c24" offset="1"/>
  </linearGradient>
  <linearGradient id="l" x1=".96195" x2="-.038505" y1="-.015093" y2=".98084">
   <stop stop-color="#fff" offset="0"/>
   <stop stop-color="#fff200" offset=".4835"/>
   <stop stop-color="#ed1c24" offset="1"/>
  </linearGradient>
  <linearGradient id="n" x1=".83737" x2=".14948" y1="-.2369" y2="1.261">
   <stop stop-color="#fff" offset="0"/>
   <stop stop-color="#fff200" offset=".4835"/>
   <stop stop-color="#ed1c24" offset="1"/>
  </linearGradient>
  <linearGradient id="k" x1="1.5098" x2="-.9559" y1="-.25442" y2="1.7296">
   <stop stop-color="#fff" offset="0"/>
   <stop stop-color="#fff200" offset=".4835"/>
   <stop stop-color="#ed1c24" offset="1"/>
  </linearGradient>
  <linearGradient id="i" x1=".9962" x2=".045327" y1="-.003578" y2="1.0422">
   <stop stop-color="#fff" offset="0"/>
   <stop stop-color="#fff200" offset=".4835"/>
   <stop stop-color="#ed1c24" offset="1"/>
  </linearGradient>
  <linearGradient id="h" x1=".93863" x2=".024592" y1=".00403" y2="1.0285">
   <stop stop-color="#fff" offset="0"/>
   <stop stop-color="#fff200" offset=".4835"/>
   <stop stop-color="#ed1c24" offset="1"/>
  </linearGradient>
  <linearGradient id="j" x1="1.0143" x2="-.014694" y1=".08445" y2="1.0666">
   <stop stop-color="#fff" offset="0"/>
   <stop stop-color="#fff200" offset=".4835"/>
   <stop stop-color="#ed1c24" offset="1"/>
  </linearGradient>
 </defs>
 <path d="m716.18 268.69l-310.36 118.1c24.684-76.518 44.521-167.32 341.46-157.83l-31.097 39.728z" fill="#ed1c24"/>
 <path d="m1003.9 376.74c-1.3206 0-2.6474-0.11032-3.9863-0.32785-11.717-1.9396-20.308-12.072-20.308-23.952l-0.0184-8.5242c-0.17468-62.874 2.8894-95.295 73.963-144.83 5.1322-3.5849 10.844-7.4058 16.941-11.334 8.1258-5.2364 15.716-10.047 22.763-14.527 34.281-21.761 59.056-37.482 59.056-47.306 0-11.591 8.1902-21.562 19.558-23.811 1.5873-0.3156 3.1652-0.4688 4.7339-0.4688 9.6702 0 18.626 5.8033 22.423 15.029 40.494 98.236-38.916 145.32-96.891 179.71-32.975 19.549-67.063 39.768-75.272 63.895-3.3918 9.9643-12.728 16.454-22.962 16.454z" fill="url(#h)"/>
 <path d="m1176.6 125.94c53.366 129.46-144.32 143.17-172.7 226.52 0-61.066-3.4776-86.716 63.551-133.44 4.9854-3.4869 10.375-7.0902 16.194-10.838 62.718-40.384 92.954-55.643 92.954-82.242m0.0245-48.556c-3.1283 0-6.2904 0.30334-9.4556 0.92841-20.664 4.0905-36.079 20.943-38.72 41.38-7.5377 7.2618-29.023 20.897-48.201 33.067-7.087 4.498-14.714 9.3392-22.885 14.6-6.3088 4.0599-12.281 8.0554-17.735 11.87-38.855 27.083-60.601 50.83-72.661 79.359-11.797 27.907-11.72 54.552-11.634 85.407 0.009155 2.7423 0.015259 5.5612 0.015259 8.4598 0 23.752 17.186 44.018 40.623 47.897 2.6688 0.44119 5.3284 0.65567 7.9634 0.65567 20.471 0 39.143-12.982 45.927-32.908 5.3223-15.639 38.233-35.154 64.673-50.832 32.886-19.503 66.894-39.67 90.88-69.851 31.777-39.992 37.335-88.401 16.071-139.99-7.6019-18.439-25.517-30.046-44.861-30.046z" fill="#ed1c24"/>
 <circle cx="657.92" cy="721.39" r="418.92" fill="none" stroke="#ed1c24" stroke-width="24.306"/>
 <path d="m686.01 1108c-15.339 0-30.993-0.96826-46.576-2.874-83.927-0.85181-256.8-46.108-326.54-212.92-43.185-103.3-48.204-199.34-14.913-285.43 25.612-66.254 73.286-125.07 141.7-174.83 66.11-48.081 136.69-58.87 188.22-66.744 21.89-3.3429 46.693-7.1362 54.748-12.507 6.364-4.2529 17.036-27.907 24.825-45.182 34.06-75.526 91.073-201.93 308.34-201.93 18.185 0 33.704 13.132 36.723 31.063 3.012 17.934-7.3629 35.42-24.543 41.365-32.586 11.279-52.003 23.14-59.366 36.266-6.4652 11.539-6.3426 29.271-6.1894 51.721 0.1471 21.127 0.33398 47.416-5.2548 77.067-7.4395 39.499-21.531 75.906-38.402 107.31 97.942-32.074 204.02-75.808 241.7-166.63 5.9014-14.202 19.684-22.974 34.391-22.974 3.4992 0 7.0535 0.49945 10.562 1.5351 18.262 5.4019 29.51 23.71 26.072 42.443-18.636 101.38-55.992 214.28-184.24 302.94 0.46265-0.006165 0.93152-0.012268 1.3942-0.012268 11.879 0 23.186 1.9487 34.124 3.8331l1.575 0.2697c9.6517 1.6515 18.283 3.0272 26.25 3.0272 10.494 0 22.159-1.964 36.382-16.178 7.124-7.1177 16.65-10.908 26.336-10.908 4.8014 0 9.6395 0.92847 14.248 2.8404 13.911 5.7635 22.986 19.34 22.986 34.403 0 69.296-51.534 99.75-97.002 126.62-43.669 25.805-88.811 52.49-107.54 115.88-21.51 72.771-63.098 133.72-120.26 176.27-56.489 42.054-125.56 64.278-199.74 64.278z" fill="#fff"/>
 <path d="m1015.8 142.77c-126.1 43.65-77.432 98.926-95.218 193.34-18.194 96.622-80.667 171.72-112.09 189.8 106.7-42.213 323.32-75.976 386.38-227.94-22.873 124.48-71.129 232.79-225.78 313.16-61.664 32.044-93.925 78.063-93.925 127.08 9.235-54.984 53.213-78.191 165.91-92.88 2.4696-0.32178 4.9974-0.46265 7.5804-0.46265 9.1676 0 19.028 1.7833 29.409 3.5665s21.286 3.5666 32.549 3.5666c20.076 0 41.288-5.6655 62.712-27.089 0 100.9-159.34 84.096-203.01 231.94-39.428 133.39-150.57 213.86-284.31 213.86-14.484 0-29.21-0.94373-44.162-2.8649-75.146 0-232.45-41.426-294.59-190.06-87.114-208.38 10.228-340.07 114.32-415.78 94.679-68.864 202.36-52.113 241.74-78.403 55.288-36.919 45.725-240.84 312.48-240.84m0-74.478c-103 0-186.04 27.402-246.8 81.448-52.196 46.426-77.214 101.9-95.482 142.41-4.4061 9.7651-10.087 22.361-14.153 29.626-9.0052 2.2705-24.865 4.6942-37.096 6.5632-52.193 7.9757-131.06 20.03-204.5 73.442-74.294 54.034-126.28 118.47-154.52 191.51-36.873 95.368-31.725 200.75 15.293 313.22 33.959 81.225 95.224 146.35 177.18 188.33 56.431 28.909 123.78 46.491 181.24 47.441 16.405 1.9272 32.88 2.9047 49.043 2.9047 82.257 0 159.02-24.773 221.99-71.644 63.683-47.401 109.93-115.03 133.74-195.58 13.871-46.96 43.528-66.453 90.769-94.373 24.2-14.303 49.224-29.09 70.338-50.398 29.832-30.114 44.959-66.545 44.959-108.29 0-30.123-18.145-57.279-45.976-68.809-9.2135-3.8148-18.89-5.6716-28.483-5.6716-2.7699 0-5.5367 0.15625-8.2789 0.46271 10.353-12.535 19.941-25.597 28.787-39.201 35.653-54.831 59.256-118.46 74.285-200.26 6.882-37.461-15.608-74.076-52.132-84.877-7.0228-2.0774-14.131-3.0702-21.13-3.0702-29.418-0.003082-56.988 17.529-68.776 45.945-22.521 54.267-78.149 90.012-140.99 116.81 3.3551-11.588 6.3027-23.722 8.6773-36.343 6.2507-33.181 6.0546-61.471 5.8984-84.2-0.082764-11.892-0.19611-28.054 1.4523-33.174 1.434-1.5167 9.7712-9.235 39.039-19.365 34.366-11.895 55.116-46.868 49.086-82.729-6.03-35.868-37.081-62.13-73.445-62.13z" fill="#ed1c24"/>
 <path d="m1074.4 569.67c75.608 0 202.33-28.493 261.67-122.48 52.453-83.079 16.347-187.99 86.844-221.7-134.86 0-191.22 32.586-228.01 157.22-36.762 124.63-51.01 172.65-120.5 186.96z" fill="url(#i)" stroke="#ed1c24" stroke-linecap="square" stroke-linejoin="round" stroke-width="12.914"/>
 <path d="m943.92 659.09c24.938-38.678 52.91-64.072 130.52-66.588 75.9-2.4544 104.25-7.9451 129.15-42.701-34.756 75.103-78.25 81.871-128.39 83.023-50.177 1.149-111-5.1874-131.28 26.265z" fill="url(#j)"/>
 <path d="m877.85 492.48c0-40.387 36.009-79.252 81.314-99.572 54.289-24.347 77.441-18.896 116.16-66.435-8.855 80.263-47.015 101.83-78.544 117.33-45.026 22.122-78.614 12.722-118.92 48.678z" fill="url(#k)"/>
 <path d="m453.42 436.62c8.8888-36.545-12.526-136.81 201.52-149.16 22.717 0 61.241-5.9289 61.241-18.767 6.0668 86.59-76.534 105.69-127.9 111.62-51.366 5.9289-106.73 28.177-134.86 56.308z" fill="url(#l)"/>
 <path d="m470.01 498.27c-166.54 114.91-168.42 355.88-12.397 476.27 139.24 107.44 281.98 61.741 328.82 41.677 36.033-15.434 140.66-90.65 175.58-223.3 12.866-48.899 92.635-87.503 110.67-87.503-43.752 0-190.45 30.883-211.02 87.503 0-69.486 0-126.1 56.605-182.72s151.7-84.148 164.7-164.7c-10.044 30.999-131.24 87.494-254.77 118.38-123.53 30.882-165.99 73.344-165.99 73.344 21.868-68.193 98.855-93.27 148.19-142.61 54.322-54.316 64.14-152.06 64.14-203.53s6.9829-110.66 33.781-110.66c-49.42 22.634-139.23 110.89-147.43 164.31-14.643 95.411-198.34 89.676-290.88 153.53z" fill="url(#m)"/>
 <path d="m1106 295.8c63.398 6.6061 150.04-27.733 181.73-81.89 31.694-54.151 94.042-96.419 109.9-96.419-93.775 0-150.18 36.551-170.12 59.47-26.418 30.386-67.853 94.581-121.51 118.84z" fill="url(#n)" stroke="#ed1c24" stroke-linecap="square" stroke-linejoin="round" stroke-width="9.903"/>
</svg>
